<svg width="728" height="728" viewBox="0 0 728 728" fill="none" xmlns="http://www.w3.org/2000/svg">
<g opacity="0.1" filter="url(#filter0_dd)">
<path fill-rule="evenodd" clip-rule="evenodd" d="M269.354 640.046C236.665 615.119 204.314 586.573 174.11 556.596C84.3376 544.403 70.5391 542.528 62.1341 550.114C49.8325 533.299 40.0949 517.245 34.0187 503.277L34.173 503.631L36.8255 509.565C42.8612 522.665 52.0223 537.514 63.4034 553.008C69.4341 545.363 87.2758 547.888 173.01 560.026C202.587 589.289 234.204 617.138 266.156 641.499C335.335 694.247 390.739 718.946 420.412 714.344L425.628 713.48C395.819 718.537 339.631 693.63 269.354 640.046Z" fill="#F4F9FD"/>
<path fill-rule="evenodd" clip-rule="evenodd" d="M256.416 645.687C226.665 622.978 197.204 597.15 169.509 569.989C77.0991 555.497 71.5682 554.632 67.0362 561.359C58.3212 549.63 50.9643 538.276 45.4334 527.863L48.5516 533.636C53.8095 543.149 60.5594 553.402 68.4398 563.965C70.7766 557.197 80.0227 558.708 168.492 573.146C195.558 599.606 224.303 624.759 253.326 646.911C318.046 696.308 370.219 720.137 399.26 717.294L403.124 716.889L404.555 716.73C375.353 720.049 322.322 695.987 256.416 645.687Z" fill="#F4F9FD"/>
<path fill-rule="evenodd" clip-rule="evenodd" d="M244.548 650.609C217.717 630.078 191.137 606.885 165.984 582.471C79.8194 566.912 79.8194 566.912 73.6543 569.603C73.5684 570.189 73.4547 570.972 73.3713 571.558C68.9193 565.645 64.8463 559.828 61.2383 554.204L63.1838 557.208L66.1931 561.729C68.8865 565.703 71.7997 569.761 74.9025 573.861C74.8242 573.458 74.7206 572.921 74.6448 572.516C78.3691 569.069 78.3691 569.069 165.024 585.36C189.553 609.095 215.433 631.631 241.552 651.62C301.338 697.372 349.918 720.233 378.158 719.247L383.482 718.996C355.024 720.42 305.552 697.294 244.548 650.609Z" fill="#F4F9FD"/>
<path fill-rule="evenodd" clip-rule="evenodd" d="M162.206 593.652C81.9913 577.191 81.9913 577.191 78.7992 578.344C78.9156 578.804 79.0673 579.416 79.1812 579.876L80.4307 581.482C80.4408 581.047 80.4535 580.468 80.4636 580.035C84.0933 579.648 84.0933 579.648 161.293 596.249C183.365 617.258 206.509 637.194 229.855 655.001C284.832 696.931 329.863 718.61 357.115 719.214L362.409 719.277C334.881 719.042 288.947 697.073 232.757 654.214C208.72 635.879 184.893 615.316 162.206 593.652Z" fill="#F4F9FD"/>
<path fill-rule="evenodd" clip-rule="evenodd" d="M158.597 603.256C84.4474 585.779 84.4474 585.779 84.0675 585.817L85.3261 587.362C87.0431 587.038 87.2204 587.005 104.117 591.625C130.946 598.957 137.697 600.624 157.729 605.56C177.383 624.032 197.878 641.562 218.54 657.326C268.457 695.414 309.718 715.869 335.79 718.007L341.336 718.399C314.953 716.7 272.656 695.913 221.344 656.761C200.013 640.485 178.857 622.358 158.597 603.256Z" fill="#F4F9FD"/>
<path fill-rule="evenodd" clip-rule="evenodd" d="M615.287 131.863C615.139 131.181 614.658 129.869 613.848 127.964C612.945 125.832 611.837 123.462 611.136 122.06C610.21 120.038 609.25 118.037 608.263 116.058C609.22 118.019 610.148 120 611.049 122.004C614.892 131.611 615.109 131.751 615.287 131.863Z" fill="#F4F9FD"/>
<path fill-rule="evenodd" clip-rule="evenodd" d="M616.165 131.863C615.97 131.126 615.408 129.737 614.501 127.734C613.478 125.477 612.243 122.985 611.474 121.519C610.437 119.384 609.364 117.271 608.263 115.18C609.335 117.253 610.378 119.35 611.388 121.465C615.822 131.653 615.958 131.736 616.165 131.863Z" fill="#F4F9FD"/>
<path fill-rule="evenodd" clip-rule="evenodd" d="M617.043 132.741C616.737 131.801 615.849 129.97 615.157 128.599C614.03 126.364 612.665 123.875 611.815 122.399C610.663 120.265 609.479 118.151 608.263 116.058C609.449 118.136 610.609 120.235 611.733 122.354C616.734 132.569 616.828 132.62 617.043 132.741Z" fill="#F4F9FD"/>
<path fill-rule="evenodd" clip-rule="evenodd" d="M617.921 132.741C617.551 131.73 616.569 129.805 615.809 128.368C614.561 126.008 613.075 123.396 612.155 121.858C610.89 119.609 609.592 117.384 608.263 115.18C609.565 117.369 610.838 119.581 612.078 121.817C617.65 132.599 617.688 132.619 617.921 132.741Z" fill="#F4F9FD"/>
<path fill-rule="evenodd" clip-rule="evenodd" d="M618.799 133.619C618.366 132.587 617.288 130.666 616.464 129.237C615.111 126.894 613.497 124.285 612.495 122.737L608.263 116.058C609.681 118.252 611.067 120.467 612.42 122.702C618.569 133.513 618.569 133.513 618.799 133.619Z" fill="#F4F9FD"/>
<path fill-rule="evenodd" clip-rule="evenodd" d="M660.09 513.778C660.872 510.82 660.691 509.457 659.478 509.076C655.623 509.574 651.717 518.336 652.207 521.186C652.527 523.072 654.605 523.448 658.034 518.251C670.262 519.029 679.952 516.81 686.729 511.556C684.198 519.535 680.084 529.963 676.452 537.521L679.252 532.595C682.741 525.081 686.63 514.706 689.043 506.79C682.287 512.254 672.503 514.571 660.09 513.778Z" fill="#F4F9FD"/>
<path fill-rule="evenodd" clip-rule="evenodd" d="M651.745 532.011C652.674 529.077 652.553 527.725 651.321 527.342C647.294 527.821 643.036 536.401 643.407 539.313C643.644 541.187 645.734 541.57 649.461 536.437C660.82 537.175 670.022 535.313 676.77 530.817C673.671 541.177 673.671 541.177 664.556 557.716L667.68 552.872C672.798 544.743 672.798 544.743 679.385 526.107C672.629 530.804 663.309 532.762 651.745 532.011Z" fill="#F4F9FD"/>
<path fill-rule="evenodd" clip-rule="evenodd" d="M641.709 549.286C642.775 546.461 642.71 545.157 641.476 544.781C637.409 545.225 632.591 553.573 632.859 556.301C633.036 558.101 635.164 558.469 639.178 553.543C649.691 554.217 658.387 552.731 665.045 549.066C661.064 560.046 661.064 560.046 650.652 576.155L654.14 571.508C660.331 562.949 660.472 562.606 667.97 544.546C661.276 548.404 652.442 549.976 641.709 549.286Z" fill="#F4F9FD"/>
<path fill-rule="evenodd" clip-rule="evenodd" d="M671.134 172.253C670.518 171.402 669.873 170.524 669.196 169.619L671.134 172.253Z" fill="#F4F9FD"/>
<path fill-rule="evenodd" clip-rule="evenodd" d="M598.443 87.532L596.869 86.2119L596.848 86.2042C597.895 90.3486 602.049 100.716 608.263 116.058C598.211 90.1724 598.381 88.2547 598.443 87.532Z" fill="#F4F9FD"/>
<path fill-rule="evenodd" clip-rule="evenodd" d="M603.397 92.6565C603.741 92.7152 604.198 92.7943 604.541 92.8529L603.012 91.5286L602.946 91.4725C602.695 91.521 602.365 91.5873 602.116 91.6358C602.251 96.5631 603.323 100.388 608.263 116.058C602.763 98.0201 603.101 95.1699 603.397 92.6565Z" fill="#F4F9FD"/>
<path fill-rule="evenodd" clip-rule="evenodd" d="M608.498 115.18C608.648 114.183 608.782 113.318 608.906 112.546C608.774 113.279 608.645 114.109 608.498 115.18Z" fill="#F4F9FD"/>
<path fill-rule="evenodd" clip-rule="evenodd" d="M685.645 204.955C682.244 193.878 679.205 188.012 672.572 176.313L670.307 172.575C679.064 187.263 681.513 194.922 683.503 201.156C685.194 207.311 685.501 212.24 684.577 215.963C656.072 170.75 626.143 136.515 608.263 116.058C650.164 164.059 669.274 192.872 686.696 220.546C687.726 216.658 687.431 211.466 685.645 204.955Z" fill="#F4F9FD"/>
<path fill-rule="evenodd" clip-rule="evenodd" d="M677.089 189.637C673.824 177.852 665.259 162.738 653.359 146.668L652.252 145.182C650.29 142.557 647.582 139.121 645.575 136.531C667.75 164.488 672.602 179.535 674.673 185.961C675.997 190.74 676.326 194.647 675.763 197.693C649.694 160.972 625.746 135.012 608.263 116.058C647.093 158.188 663.613 181.52 678.189 202.107C678.836 198.895 678.506 194.743 677.089 189.637Z" fill="#F4F9FD"/>
<path fill-rule="evenodd" clip-rule="evenodd" d="M666.797 174.929C661.193 154.675 636.715 122.551 607.913 96.1277C607.642 95.9788 607.221 95.941 606.924 95.8627C604.888 98.5452 605.253 101.563 608.012 115.781C605.61 102.711 606.242 100.501 607.109 97.4424C607.596 97.3339 608.24 97.1901 608.722 97.0816C635.838 122.039 658.832 152.273 664.117 171.363C665.103 174.934 665.418 177.909 665.114 180.296C644.171 153.711 628.907 137.493 608.012 115.781C635.368 144.218 648.051 159.344 667.83 184.546C668.187 181.992 667.868 178.79 666.797 174.929Z" fill="#F4F9FD"/>
<path fill-rule="evenodd" clip-rule="evenodd" d="M656.508 160.91C651.183 144.324 635.089 122.782 611.195 100.253C607.793 101.605 608.041 106.101 608.582 115.95C607.98 104.411 609.202 103.361 611.641 101.27C632.211 120.301 649.512 143.032 653.544 157.482C654.235 159.965 654.5 162.073 654.375 163.813C636.37 143.364 624.715 131.866 608.582 115.95C633.147 140.191 641.246 149.439 657.389 167.863C657.552 165.964 657.271 163.647 656.508 160.91Z" fill="#F4F9FD"/>
<path fill-rule="evenodd" clip-rule="evenodd" d="M644.257 152.058C644.302 150.778 644.09 149.257 643.599 147.495C640.543 136.476 627.574 119.232 612.054 104.643C609.799 106.666 609.405 107.6 608.654 113.13C609.175 109.673 609.751 108.86 612.117 105.715C626.042 118.848 637.654 134.317 640.402 144.219C640.882 146.089 640.897 146.375 640.998 148.235C628.924 135.758 627.362 134.274 608.263 116.142C624.958 132 627.905 135.062 644.257 152.058Z" fill="#F4F9FD"/>
<path fill-rule="evenodd" clip-rule="evenodd" d="M630.683 134.635C629.761 131.518 626.074 122.786 611.781 109.033C610.292 110.907 609.125 113.938 608.263 116.156C608.933 114.24 610.399 111.917 611.451 110.174C615.261 113.79 624.414 123.107 627.149 131.478C627.364 132.244 627.476 132.917 627.487 133.505C621.788 128.231 614.048 121.342 608.263 116.156C615.189 122.366 624.286 130.792 631.092 137.131C631.082 136.413 630.949 135.581 630.683 134.635Z" fill="#F4F9FD"/>
<path fill-rule="evenodd" clip-rule="evenodd" d="M616.03 122.306C615.42 120.019 612.903 116.49 609.845 113.424L608.263 115.986L609.142 114.639C610.877 116.418 611.958 117.975 612.36 119.266L612.429 119.661L608.263 115.986L616.165 123.082C616.153 122.854 616.108 122.594 616.03 122.306Z" fill="#F4F9FD"/>
<path fill-rule="evenodd" clip-rule="evenodd" d="M506.093 661.398C513.373 642.921 514.904 637.55 519.74 613.501C522.087 611.266 524.42 608.99 526.738 606.673C620.766 512.761 666.985 376.986 655.786 257.172C648.536 235.769 648.208 234.828 631.155 185.578C625.32 182.061 618.988 177.723 612.262 172.579C593.468 158.204 575.023 140.147 560.668 122.075C561.042 121.519 561.539 120.775 561.91 120.219C556.753 118.509 554.334 120.58 552.889 121.82C553.958 122.677 555.88 123.216 557.253 123.183C572.866 141.877 592.227 160.83 611.952 175.915C618.862 181.201 625.373 185.672 631.384 189.321C649.598 243.371 649.598 243.371 654.618 258.464C664.24 377.391 617.394 511.939 523.863 605.355C521.047 608.17 518.207 610.924 515.348 613.62C511.302 638.316 506.136 651.247 501.141 663.75C525.316 671.054 543.958 671.079 555.686 663.679L560.179 660.789C548.6 668.348 530.114 668.5 506.093 661.398Z" fill="#F4F9FD"/>
<path fill-rule="evenodd" clip-rule="evenodd" d="M486.02 671.032C495.191 650.948 497.251 640.768 501.868 614.28C506.27 610.247 510.632 606.076 514.956 601.769C607.15 509.843 655.916 378.976 650.94 262.778C644.554 242.249 638.067 221.755 631.646 201.239C625.159 197.235 618.179 192.415 610.805 186.782C575.748 160.017 541.69 122.578 524 92.1627C524.705 91.8542 525.645 91.4419 526.348 91.1334C526.302 91.0803 520.346 86.7378 514.344 90.1369C515.726 90.797 517.675 91.4622 519.161 91.8137C538.392 123.44 573.825 162.391 610.299 190.242C617.792 195.963 624.891 200.882 631.504 204.987C637.504 224.641 643.536 244.282 649.551 263.931C652.998 379.193 603.638 508.829 511.943 600.254C507.124 605.062 502.249 609.698 497.331 614.164C492.285 646.067 489.571 653.221 480.946 673.11C505.729 681.201 524.986 681.942 537.301 675.182L541.971 672.567C529.79 679.489 510.672 678.93 486.02 671.032Z" fill="#F4F9FD"/>
<path fill-rule="evenodd" clip-rule="evenodd" d="M465.838 678.868C477.095 657.571 480.103 637.103 483.586 613.407C490.056 607.673 496.458 601.654 502.777 595.351C592.974 505.349 644.072 379.325 645.141 266.855C635.931 234.552 635.931 234.552 630.648 215.83C623.728 211.456 616.353 206.302 608.599 200.379C582.452 180.399 556.786 155.301 537.1 129.785C537.269 129.106 537.497 128.2 537.668 127.522C533.513 125.502 530.599 127.165 528.193 128.878C528.251 129.592 528.327 130.547 528.388 131.263C529.704 131.648 531.567 131.86 532.934 131.749C554.332 157.346 580.87 183.295 607.904 203.951C615.711 209.92 623.152 215.129 630.14 219.574C634.02 233.714 635.655 239.595 643.526 267.86C640.986 379.351 589.335 504.139 499.638 593.64C492.809 600.457 485.886 606.937 478.89 613.085C474.485 649.856 469.126 662.713 460.75 680.642C486.002 689.492 505.769 690.94 518.604 684.834L523.343 682.536C510.632 688.808 490.984 687.535 465.838 678.868Z" fill="#F4F9FD"/>
<path fill-rule="evenodd" clip-rule="evenodd" d="M444.806 684.894C456.349 662.68 459.903 646.256 464.132 611.138C472.687 603.81 481.154 595.994 489.499 587.692C577.876 499.775 631.243 378.821 638.116 270.435C635.014 258.51 630.901 242.602 627.834 230.664C620.689 226.057 613.13 220.739 605.228 214.718C558.985 179.494 514.065 130.23 490.501 90.0903C491.183 89.5441 492.087 88.8159 492.768 88.2697C491.137 86.4667 487.412 85.8396 481.691 86.406C481.245 87.0711 480.655 87.9586 480.209 88.6237C481.703 89.3267 483.828 89.9942 485.449 90.2825C510.534 131.447 556.759 182.141 604.344 218.387C612.243 224.406 619.806 229.741 626.97 234.386C629.738 245.459 633.469 260.214 636.278 271.28C627.986 378.652 574.107 498.374 486.231 585.79C477.385 594.59 468.41 602.849 459.343 610.564C455.081 649.063 451.406 663.236 439.677 686.381C465.249 695.896 485.421 698.053 498.737 692.705L503.623 690.69C490.415 696.23 470.324 694.245 444.806 684.894Z" fill="#F4F9FD"/>
<path fill-rule="evenodd" clip-rule="evenodd" d="M424.607 690.864C439.782 665.684 442.484 636.782 445.098 608.831C455.659 599.985 466.13 590.411 476.448 580.11C562.592 494.111 617.805 377.973 630.214 273.6C628.234 265.187 625.635 253.957 623.682 245.537C616.56 240.827 609.088 235.5 601.317 229.557C568.27 204.294 535.831 172.559 511.079 139.766C511.069 139.05 511.054 138.096 511.043 137.38C510.99 137.334 505.204 133.634 500.402 139.896C500.642 140.592 500.961 141.518 501.201 142.214C502.671 142.677 504.769 142.943 506.303 142.793C533.119 174.885 566.375 207.422 600.253 233.323C607.962 239.215 615.385 244.52 622.467 249.23C624.15 256.749 626.44 266.761 628.15 274.273C614.398 377.601 558.715 492.514 473.071 578.015C462.253 588.814 451.279 598.821 440.214 608.033C436.236 661.435 428.098 676.317 419.482 692.076C445.119 702.21 465.501 705.057 479.171 700.461L484.124 698.748C470.543 703.529 450.221 700.851 424.607 690.864Z" fill="#F4F9FD"/>
<path fill-rule="evenodd" clip-rule="evenodd" d="M404.406 695.079C418.27 671.605 422.46 653.95 425.758 605.119C438.326 594.839 450.829 583.55 463.167 571.259C547.467 487.282 604.594 376.07 622.311 275.936L618.976 260.156C612.073 255.503 604.887 250.337 597.445 244.662C540.815 201.463 485.804 141.044 457.463 91.4368C457.881 90.7537 458.438 89.8404 458.855 89.1572C458.812 89.1066 453.491 84.7852 445.846 88.7651C446.024 89.4963 446.264 90.4754 446.441 91.2091C447.904 91.7911 449.979 92.2541 451.537 92.4539C482.059 142.61 538.3 204.38 596.195 248.543C603.516 254.127 610.598 259.228 617.413 263.845L620.019 276.43C601.023 375.495 543.472 485.494 459.672 568.974C446.833 581.761 433.832 593.475 420.773 604.102C418.27 664.1 408.181 681.057 399.287 696.02C424.978 706.692 445.553 710.189 459.564 706.358L461.393 705.852L464.617 704.936C450.674 708.967 430.122 705.629 404.406 695.079Z" fill="#F4F9FD"/>
<path fill-rule="evenodd" clip-rule="evenodd" d="M696.764 243.872C682.956 218.394 677.705 210.087 659.296 182.574C658.369 183.114 657.268 183.47 656.006 183.642C653.87 179.997 653.449 179.631 653.043 179.277C653.056 179.391 658.251 191.752 660.125 192.278C659.833 191.179 659.332 190.05 658.387 188.085C659.664 187.913 660.79 187.559 661.748 187.026C681.512 217.116 685.984 225.211 698.437 248.643C700.168 243.811 699.969 237.073 697.588 228.396C696.276 223.688 696.127 223.325 692.358 214.032L689.501 207.713C692.287 213.686 694.431 219.301 695.847 224.456C698.12 232.733 698.347 239.197 696.764 243.872Z" fill="#F4F9FD"/>
<path fill-rule="evenodd" clip-rule="evenodd" d="M708.284 282.29C697.146 256.341 692.643 247.705 676.554 218.866C674.899 219.515 672.96 219.857 670.755 219.887C669.002 216.062 668.526 215.68 668.022 215.277C667.469 217.205 671.478 227.112 673.052 229.012L673.516 228.815C673.503 227.819 673.279 226.815 672.555 224.517C674.756 224.482 676.699 224.158 678.373 223.533C695.651 255.081 699.316 263.375 709.369 287.277C713.278 278.397 712.071 271.918 709.41 260.285C709.01 258.911 708.597 257.539 708.174 256.168C711.409 267.783 711.294 276.477 708.284 282.29Z" fill="#F4F9FD"/>
<path fill-rule="evenodd" clip-rule="evenodd" d="M683.287 237.659C682.36 237.952 681.364 238.171 680.302 238.313C678.672 234.451 678.196 234.095 677.692 233.716C677.172 234.277 679.941 245.662 682.505 247.874C682.768 247.422 683.012 246.998 681.937 243.028C682.941 242.894 683.886 242.694 684.772 242.429C700.728 274.793 703.993 283.223 712.851 307.472C716.648 301.608 717.374 292.643 714.532 280.521L713.299 275.225C716.33 287.458 715.764 296.515 712.087 302.444C702.269 276.099 698.153 267.262 683.287 237.659Z" fill="#F4F9FD"/>
<path fill-rule="evenodd" clip-rule="evenodd" d="M709.05 260.058C708.921 259.624 708.784 259.186 708.647 258.745L706.792 253.033C707.143 254.068 707.469 255.088 707.772 256.094C708.21 257.414 708.636 258.735 709.05 260.058Z" fill="#F4F9FD"/>
<path fill-rule="evenodd" clip-rule="evenodd" d="M703.624 242.261C703.378 241.588 703.137 240.915 702.88 240.244C706.078 252.393 705.24 256.973 703.482 263.072C691.001 237.228 686.116 228.714 668.834 200.393C666.812 201.367 664.218 201.719 661.109 201.456C659.265 197.684 658.805 197.274 658.321 196.838C658.1 197.962 661.944 208.866 664.17 210.487C664.185 209.742 664.198 209.206 663.053 206.018C666.223 206.289 668.885 205.945 670.979 204.98C689.532 235.955 693.605 244.188 704.862 267.96C707.806 260.474 706.591 254.084 704.37 244.277L704.367 244.274C703.662 241.758 702.49 238.474 701.667 235.993L699.571 230.388C700.906 233.813 702.015 237.104 702.88 240.244C703.137 240.915 703.378 241.588 703.624 242.261Z" fill="#F4F9FD"/>
<path fill-rule="evenodd" clip-rule="evenodd" d="M452.4 50.811C452.842 52.4116 453.346 54.0501 453.909 55.7264C489.077 69.0766 489.077 69.0766 566.689 99.6445C575.024 113.399 589.493 129.935 605.158 143.277C607.363 133.164 608.425 123.962 608.243 115.832C608.205 123.106 607.13 131.28 605.098 140.238C590.864 128.011 577.775 112.974 570.251 100.483C506.269 74.5423 494.781 69.9551 458.506 55.8602C458.028 54.4111 457.595 52.9923 457.211 51.6012C451.533 31.013 457.464 20.6596 471.875 20.2102C518.948 34.6964 547.515 55.4765 564.583 67.895C565.263 68.1374 565.96 68.405 566.676 68.6953C569.108 70.7579 569.108 70.7579 570.516 71.6188C570.458 71.5608 564.373 65.2543 561.574 64.1611C562.148 64.709 562.932 65.4235 563.521 65.9536C562.843 65.6784 562.178 65.4234 561.529 65.1887C525.286 37.6098 489.31 25.7063 467.812 18.5945C452.761 18.8924 446.527 29.5159 452.4 50.811Z" fill="#F4F9FD"/>
<path fill-rule="evenodd" clip-rule="evenodd" d="M584.46 104.848C528.277 79.2889 503.254 68.6567 476.762 57.3995C476.56 56.7468 476.373 56.1017 476.198 55.4641C471.285 37.6774 476.087 28.4413 488.069 27.4913C533.974 44.1238 560.776 66.3256 576.79 79.5913C578.784 80.2541 580.998 81.2117 583.406 82.4617C585.443 84.6163 585.443 84.6163 586.31 85.1204C586.265 85.0599 581.498 78.9689 579.216 77.8424C579.683 78.3943 580.323 79.1201 580.806 79.6594C578.248 78.3288 575.885 77.3006 573.752 76.5798C539.928 47.2335 504.939 33.7032 484.033 25.6188C471.462 26.458 466.392 35.9738 471.495 54.4435C471.717 55.2549 471.96 56.079 472.22 56.9131C497.724 67.5075 521.82 77.5122 580.942 103.628C586.148 112.42 595.257 123.035 605.288 131.863C606.797 126.082 607.798 120.732 608.263 115.858C607.732 120.001 606.792 124.509 605.462 129.353C596.786 121.651 588.933 112.456 584.46 104.848Z" fill="#F4F9FD"/>
<path fill-rule="evenodd" clip-rule="evenodd" d="M599.228 110.192C554.296 87.1411 527.795 74.6354 495.267 59.4882L495.239 59.397C491.049 44.2195 494.863 36.0925 504.665 34.7984C549.553 53.7925 572.755 75.7826 589.693 91.8364C590.251 92.0112 590.84 92.2214 591.456 92.4721C593.885 95.2275 593.885 95.2275 594.583 95.8657C594.54 95.7999 589.261 88.7619 586.198 86.3383C586.716 87.0119 586.931 87.288 588.589 89.2C587.919 88.9291 587.279 88.6986 586.67 88.5061C555.113 57.1127 520.994 41.7958 500.607 32.6432C490.27 33.8664 486.217 42.2872 490.589 58.1308L490.732 58.6398C522.829 73.2475 549.149 85.381 595.753 108.579C598.169 112.773 602.438 117.858 607.214 122.204C607.983 119.819 608.625 117.544 609.141 115.387C608.707 116.939 608.202 118.557 607.626 120.239C604.118 117.018 600.994 113.277 599.228 110.192Z" fill="#F4F9FD"/>
<path fill-rule="evenodd" clip-rule="evenodd" d="M608.267 115.391L608.505 115.736C608.057 115.07 607.617 114.396 607.143 113.745C607.501 114.306 607.888 114.844 608.267 115.391Z" fill="#F4F9FD"/>
<path fill-rule="evenodd" clip-rule="evenodd" d="M532.69 51.9603C526.772 53.3571 524.364 58.6978 526.485 68.0854C561.524 87.2056 579.102 97.3281 608.263 115.18C582.441 98.9716 565.083 88.761 530.885 69.6534C528.991 60.978 531.227 56.0023 536.68 54.6256C575.231 77.6644 588.363 91.9372 608.263 115.18C582.917 85.0587 569.498 73.8313 532.69 51.9603Z" fill="#F4F9FD"/>
<path fill-rule="evenodd" clip-rule="evenodd" d="M548.343 63.3749C544.163 64.6512 542.404 68.6376 543.712 75.3978C576.366 95.0096 584.631 100.397 608.263 116.058C581.91 98.1774 570.596 91.2189 548.057 77.3529C546.921 71.2054 548.526 67.5495 552.311 66.3215C577.975 83.935 585.82 90.9062 608.263 116.058C584.628 89.0986 576.963 82.9206 548.343 63.3749Z" fill="#F4F9FD"/>
<path fill-rule="evenodd" clip-rule="evenodd" d="M178.74 654.745L178.202 655.281C178.844 657.621 183.939 659.233 185.251 659.456C186.919 659.74 187.187 659.464 187.677 658.957C187.366 658.016 187.366 658.016 186.434 657.2C184.756 656 183.189 655.302 181.03 654.798C170.329 646.374 159.714 637.399 149.322 628.049C115.01 615.357 106.768 609.967 100.75 605.131L102.065 606.534C110.473 614.446 134.294 623.745 148.526 629.302C158.435 638.189 168.547 646.724 178.74 654.745Z" fill="#F4F9FD"/>
<path fill-rule="evenodd" clip-rule="evenodd" d="M161.324 652.576L161.073 652.88C162.295 654.731 166.964 656.532 167.012 656.547C168.486 657.071 168.75 656.972 169.238 656.788C169.037 656.182 169.037 656.182 168.262 655.529C166.865 654.513 165.515 653.799 163.601 653.065C156.638 647.615 149.718 641.881 142.897 635.942C122.688 625.936 119.115 622.993 111.287 616.546L112.733 617.951C120.779 625.227 129.735 629.958 142.129 636.505C148.544 642.068 155.042 647.44 161.324 652.576Z" fill="#F4F9FD"/>
<path fill-rule="evenodd" clip-rule="evenodd" d="M176.058 664.829C174.973 664.159 173.984 663.6 171.877 662.555C168.302 660.067 164.641 657.422 160.901 654.614C153.951 649.391 147.031 643.852 140.211 638.067C127.263 630.42 124.929 629.041 117.433 622.692L118.353 623.537L118.967 624.099C128.096 631.383 129.27 632.318 139.456 638.27C145.862 643.684 152.358 648.874 158.883 653.776C162.509 656.497 166.058 659.064 169.52 661.476C169.283 661.381 168.96 661.271 168.715 661.196C169.294 662.106 174.167 664.568 174.216 664.593C176.353 665.661 176.718 665.689 177.141 665.716C176.822 665.328 176.822 665.328 176.058 664.829Z" fill="#F4F9FD"/>
<path fill-rule="evenodd" clip-rule="evenodd" d="M711.383 425.39C705.472 430.118 696.965 432.118 686.207 431.424C686.26 430.247 686.433 426.667 684.855 426.373C684.567 426.32 677.093 437.265 681.833 440.936C682.869 440.589 683.763 440.292 685.221 436.279C696.31 436.994 705.029 434.877 711.017 429.89C720.138 397.213 720.815 383.469 722.299 353.355C722.941 349.747 723.211 344.847 723.287 341.183L722.951 335.57C723.333 340.755 722.976 345.262 721.93 349.096C721.36 384.113 718.236 397.05 711.383 425.39Z" fill="#F4F9FD"/>
<path fill-rule="evenodd" clip-rule="evenodd" d="M722.515 366.248C720.641 401.782 717.038 414.809 709.141 443.348C699.5 452.519 681.988 453.436 658.345 446.274C666.66 417.92 671.971 388.847 674.599 359.401C676.463 356.834 677.516 348.307 674.258 345.229C670.642 346.252 670.743 356.11 672.511 359.223C669.991 389.916 664.057 420.591 654.799 450.419C680.011 458.437 698.571 457.629 708.503 447.784C718.823 414.913 720.007 400.974 722.601 370.431C723.043 368.09 723.272 365.544 723.283 362.79L723.285 357.498C723.313 360.688 723.055 363.606 722.515 366.248Z" fill="#F4F9FD"/>
<path fill-rule="evenodd" clip-rule="evenodd" d="M645.694 462.42C645.856 461.206 646.354 457.516 644.164 456.571C640.919 455.169 636.109 463.896 637.477 468.696C638.011 470.575 640.396 472.783 643.987 467.109C673.687 477.471 695.135 476.681 705.565 464.455C715.064 437.273 717.904 422.847 720.653 401.424C717.702 424.122 713.643 437.172 706.47 460.162C696 471.932 674.858 472.592 645.694 462.42Z" fill="#F4F9FD"/>
<path fill-rule="evenodd" clip-rule="evenodd" d="M720.386 399.668C720.27 400.553 720.157 401.439 720.041 402.302C720.157 401.439 720.273 400.558 720.386 399.668Z" fill="#F4F9FD"/>
<path fill-rule="evenodd" clip-rule="evenodd" d="M720.865 399.668C721.379 395.7 721.898 391.509 722.461 386.922C722.588 385.965 722.685 384.98 722.751 383.962L723.075 378.594C723.007 380.05 722.87 381.447 722.672 382.782C722.108 389.043 721.508 394.582 720.865 399.668Z" fill="#F4F9FD"/>
<path fill-rule="evenodd" clip-rule="evenodd" d="M718.447 417.872L718.624 416.681C718.516 417.358 718.402 417.993 718.292 418.654C718.344 418.388 718.397 418.14 718.447 417.872Z" fill="#F4F9FD"/>
<path fill-rule="evenodd" clip-rule="evenodd" d="M718.019 418.985C716.196 427.947 714.842 434.582 713.628 440.058C715.271 433.62 716.706 426.815 718.019 418.985Z" fill="#F4F9FD"/>
<path fill-rule="evenodd" clip-rule="evenodd" d="M718.501 417.229C719.075 413.655 719.631 409.875 720.171 405.814L718.501 417.229Z" fill="#F4F9FD"/>
<path fill-rule="evenodd" clip-rule="evenodd" d="M669.902 488.891C670.081 487.934 670.55 485.389 669.761 484.425C667.288 481.404 661.992 492.84 662.781 496.695C663.096 498.237 664.898 499.591 668.198 493.568C683.243 494.55 694.294 490.692 700.581 481.913C708.171 461.143 710.43 454.654 713.628 440.058C710.568 452.196 706.79 463.156 701.758 477.74C695.463 486.158 684.601 489.85 669.902 488.891Z" fill="#F4F9FD"/>
<path fill-rule="evenodd" clip-rule="evenodd" d="M584.588 643.917C606.402 622.335 612.145 609.787 620.555 577.839C613.9 577.152 606.586 575.667 598.663 573.388C599.91 570.531 599.779 569.053 598.213 568.29C593.487 567.691 588.272 574.505 587.913 577.855C587.6 580.788 590.531 582.116 595.667 577.443C603.276 579.628 610.326 581.088 616.772 581.811C607.737 615.145 601.238 626.771 580.165 647.277C581.01 646.757 581.824 646.201 582.598 645.61L586.866 642.296C586.138 642.869 585.38 643.41 584.588 643.917Z" fill="#F4F9FD"/>
<path fill-rule="evenodd" clip-rule="evenodd" d="M371.433 46.5937C383.774 91.4254 431.512 158.648 491.402 220.026C430.418 277.134 355.432 349.563 283.468 421.291C269.36 435.352 255.924 448.837 242.198 461.247C239.867 461.012 234.408 460.466 233.432 466.428C232.492 472.168 238.581 477.488 244.412 474.141C248.14 471.271 247.311 467.89 246.646 465.177C259.387 452.372 272.843 438.905 286.946 424.846C360.117 351.914 435.953 277.792 496.75 219.51C436.701 158.448 388.632 91.1093 376.323 46.3914C367.389 13.9346 379.01 -0.366999 404.957 2.83165L399.5 2.23996C373.862 -0.516185 362.476 14.056 371.433 46.5937Z" fill="#F4F9FD"/>
<path fill-rule="evenodd" clip-rule="evenodd" d="M182.621 533.601C185.899 538.806 190.513 537.546 191.568 536.922C192.932 536.121 195.861 532.686 191.599 527.608C187.025 523.689 183.175 525.354 181.874 528.914C90.788 519.551 69.1466 517.328 53.4625 526.097C36.1569 501.595 23.6122 478.681 18.2139 460.253L19.9872 466.167C25.6056 484.065 37.8189 506.062 54.4542 529.509C61.0162 525.119 70.9351 518.487 182.621 533.601Z" fill="#F4F9FD"/>
<path fill-rule="evenodd" clip-rule="evenodd" d="M166.349 516.031C169.552 521.173 173.763 520.073 174.986 519.283C175.037 519.25 179.828 515.742 174.956 509.72C170.504 505.787 166.813 507.564 165.599 511.23C89.1468 504.557 67.8358 503.774 50.2975 512.113C32.2068 486.262 19.2444 462.195 13.8982 442.912C13.5435 441.633 13.2243 440.39 12.9456 439.18L14.1947 444.53C14.3999 445.355 14.6203 446.196 14.8585 447.051C20.159 466.168 33.0885 490.077 51.1336 515.745C58.1976 511.854 71.3475 504.614 166.349 516.031Z" fill="#F4F9FD"/>
<path fill-rule="evenodd" clip-rule="evenodd" d="M352.5 47.4907C364.914 92.5291 411.091 158.892 470.011 221.082C408.878 273.649 337.478 339.594 270.244 406.521C268.199 408.559 266.172 410.582 263.107 412.17C255.694 411.045 254.024 416.269 253.687 417.895C252.459 423.845 258.688 429.352 264.81 425.729C267.82 423.739 268.746 420.525 267.564 416.178C269.579 414.168 271.611 412.142 273.653 410.107C342.097 341.979 414.462 274.453 475.677 220.771C416.433 158.717 369.806 92.0815 357.397 47.0558C348.392 14.3902 359.034 -0.94372 383.675 0.457171L379.573 0.254876L378.209 0.199245C353.894 -0.784413 343.484 14.7872 352.5 47.4907Z" fill="#F4F9FD"/>
<path fill-rule="evenodd" clip-rule="evenodd" d="M45.6066 484.838C54.7725 481.194 71.8326 474.415 138.95 480.104C141.926 485.491 145.893 484.11 147.046 483.199C147.095 483.163 151.545 479.221 147.001 473.066C142.872 469.096 139.304 470.961 138.245 475.06C81.6838 472.38 64.2773 473.443 45.1085 480.746C27.1356 453.854 14.2704 428.936 8.67981 408.616C7.24866 403.418 6.33838 398.684 5.92117 394.399L6.51285 400.017C6.96546 403.929 7.82516 408.211 9.10713 412.87C14.6775 433.117 27.5806 457.999 45.6066 484.838Z" fill="#F4F9FD"/>
<path fill-rule="evenodd" clip-rule="evenodd" d="M313.385 53.5238C325.57 97.8055 367.266 160.761 422.107 222.503C363.949 266.681 301.238 320.95 243.74 378.291C241.698 380.328 239.673 382.357 236.657 383.946C229.478 382.792 227.738 388.056 227.377 389.695C226.052 395.703 231.978 401.277 238.009 397.626C240.99 395.609 241.963 392.373 240.899 388C242.906 385.981 244.928 383.954 246.971 381.917C305.677 323.371 369.538 267.723 428.263 222.543C372.794 160.589 330.472 97.0869 318.239 52.6229C309.09 19.3762 318.302 2.34928 341.013 1.03348L335.697 1.40544C313.256 3.05019 304.234 20.2568 313.385 53.5238Z" fill="#F4F9FD"/>
<path fill-rule="evenodd" clip-rule="evenodd" d="M42.9906 450.594C60.3482 444.635 74.6796 443.362 106.346 442.766C108.331 447.853 112.005 448.023 113.891 446.192C113.932 446.149 117.938 441.802 113.817 435.602C110.052 431.653 106.955 433.989 105.955 438.186C70.6836 438.825 60.2899 440.547 42.8637 446.131C25.6381 419.308 13.2869 394.524 7.61783 373.95C5.22884 365.29 4.13208 357.768 4.23617 351.375L4.16509 356.754C4.16001 362.896 5.24915 370.062 7.5112 378.266C13.1854 398.848 25.6279 423.703 42.9906 450.594Z" fill="#F4F9FD"/>
<path fill-rule="evenodd" clip-rule="evenodd" d="M42.7306 413.716C57.7778 409.394 62.6589 408.749 80.9187 406.703C82.3129 411.301 85.6195 412.103 87.6461 409.748C87.6842 409.7 91.3641 404.956 87.7426 398.845C84.1516 394.735 81.3682 398.322 80.6165 402.039C59.8425 404.331 56.9423 405.133 43.01 408.977C27.173 383.256 15.7752 359.51 10.2287 339.449C6.879 327.337 5.85554 317.271 6.94757 309.229L6.25934 314.433C5.30699 322.299 6.35076 332.066 9.58622 343.761C15.1581 363.916 26.693 387.823 42.7306 413.716Z" fill="#F4F9FD"/>
<path fill-rule="evenodd" clip-rule="evenodd" d="M51.8573 370.692C76.6492 365.257 95.079 363.964 134.553 363.036C149.365 344.366 166.341 325.382 185.412 306.372C205.321 286.525 226.424 267.739 249.158 250.668C250.772 250.987 252.779 251.383 255.449 249.915C255.518 249.875 262.222 245.659 258.609 239.37C258.34 239.086 258.014 238.675 257.712 238.427C254.342 235.628 244.826 237.468 245.667 246.762C223.791 264.21 202.666 282.961 182.756 302.808C164.185 321.318 147.625 339.834 133.132 358.086C90.7464 359.056 77.2142 360.671 52.6909 365.718C37.4661 340.072 26.4624 316.393 20.8909 296.143C16.3962 279.81 15.7552 266.882 18.5372 257.315L17.098 262.357C14.4985 271.805 15.1826 284.477 19.5709 300.42C25.1906 320.836 36.3741 344.769 51.8573 370.692Z" fill="#F4F9FD"/>
<path fill-rule="evenodd" clip-rule="evenodd" d="M55.2195 350.497C79.0264 344.981 102.071 344.072 128.757 343.021C142.265 326.089 157.563 309.022 174.611 292.037C182.411 284.265 190.413 276.675 198.583 269.285C200.971 270.399 203.311 270.209 205.542 268.715C209.951 265.762 211.022 259.573 207.623 256.671C203.554 253.196 194.726 257.418 196.073 265.777C187.896 273.16 179.891 280.742 172.091 288.517C155.545 305.003 140.662 321.588 127.481 338.078C88.1582 339.291 74.7872 341.879 56.2831 345.46C42.1549 321.047 31.8988 298.485 26.5377 279.017C21.6097 261.123 21.1944 247.214 24.7473 237.229L23.0076 242.2C19.6572 252.087 20.1308 265.75 24.9499 283.249C30.3667 302.919 40.8127 325.767 55.2195 350.497Z" fill="#F4F9FD"/>
<path fill-rule="evenodd" clip-rule="evenodd" d="M72.5081 289.912C88.4881 287.025 92.7744 286.64 116.557 284.501C125.963 273.251 136.19 262.093 147.238 251.094C167.144 231.268 188.617 213.046 211.143 196.575C213.303 197.702 215.599 197.618 217.965 196.325C218.036 196.289 224.848 192.365 222.18 186.417C221.962 186.151 221.704 185.766 221.451 185.533C217.982 182.31 208.797 185.921 209.129 193.322C186.565 209.731 165.075 227.921 145.165 247.744C134.619 258.247 124.826 268.901 115.784 279.649C97.8537 281.067 96.9721 281.207 74.3422 284.767C63.7327 264.772 55.882 246.197 51.3399 229.714C45.1865 207.379 45.6602 190.894 51.8212 180.155L49.179 184.829C43.2536 195.532 42.8685 211.825 48.9231 233.803C53.5438 250.572 61.5997 269.511 72.5081 289.912Z" fill="#F4F9FD"/>
<path fill-rule="evenodd" clip-rule="evenodd" d="M587.766 296.642C585.649 295.419 584.425 296.498 582.576 298.133C581.276 297.16 579.976 296.172 578.664 295.173C558.341 279.678 538.182 262.43 518.87 244.253C465.533 309.208 395.022 386.882 322.611 458.98C314.951 466.608 307.432 474.008 300.068 481.178C301.312 530.33 305.295 579.372 305.54 628.559C304.051 629.057 302.293 630.396 301.256 631.582C302.21 637.961 310.662 639.781 315.386 634.627C314.928 631.352 314.847 630.763 310.725 628.897C310.262 580.269 306.567 531.773 305.148 483.183C312.06 476.46 319.101 469.532 326.261 462.402C397.467 391.505 466.381 314.789 518.66 249.826C537.512 267.43 557.127 284.134 576.899 299.207C578.226 300.221 579.552 301.224 580.748 303.244C581.18 307.977 581.689 308.233 584.503 309.653C585.882 309.107 587.766 308.066 588.547 306.805H588.545C591.117 301.843 589.258 298.96 587.766 296.642Z" fill="#F4F9FD"/>
<path fill-rule="evenodd" clip-rule="evenodd" d="M539.724 343.352C543.44 344.019 550.23 337.299 544.729 330.362C542.181 329.05 541.273 328.954 538.229 331.036C531.892 325.94 525.582 320.713 519.317 315.375C477.804 376.307 424.796 440.826 366.894 498.479C365.241 500.123 363.595 501.755 361.952 503.37C362.92 540.654 362.92 540.654 362.728 561.669C361.363 562.478 359.492 563.582 358.999 566.078C357.98 571.244 364.74 575.678 371.184 572.394C375.49 569.963 376.286 563.693 369.081 561.131C368.128 535.45 368.128 535.45 367.22 505.1C368.368 503.966 369.518 502.827 370.669 501.68C427.367 445.227 479.071 381.941 519.681 321.709C525.038 326.231 530.423 330.672 535.828 335.018C534.801 341.723 538.209 343.079 539.724 343.352Z" fill="#F4F9FD"/>
<path fill-rule="evenodd" clip-rule="evenodd" d="M608.537 116.326L608.263 116.058C609.433 117.228 610.556 118.43 611.775 119.57C611.489 119.249 610.35 118.1 608.537 116.326Z" fill="#F4F9FD"/>
<path fill-rule="evenodd" clip-rule="evenodd" d="M686.081 280.032L638.774 172.934C637.421 169.895 637.067 169.461 636.479 168.741L636.36 168.794C636.403 169.279 639.213 180.289 641.387 180.962C666.38 233.714 677.59 262.103 686.596 284.916C689.815 285.144 692.719 284.984 695.276 284.439C696.344 287.988 696.695 288.318 697.463 289.033C697.738 288.445 698.203 287.463 697.263 282.861C696.948 281.301 696.051 277.404 694.6 274.895C694.35 274.895 694.021 274.895 693.774 274.895C693.708 276.293 693.688 276.714 694.15 279.54C691.762 280.05 689.063 280.215 686.081 280.032Z" fill="#F4F9FD"/>
<path fill-rule="evenodd" clip-rule="evenodd" d="M593.336 83.569C592.95 83.0427 591.647 81.9056 590.297 80.7582L588.498 79.2411L588.464 79.2103L588.353 79.1205L586.311 77.4237C588.54 79.2976 590.634 81.3409 592.84 83.2507C593.24 83.5741 593.24 83.5741 593.336 83.569Z" fill="#F4F9FD"/>
<path fill-rule="evenodd" clip-rule="evenodd" d="M487.445 22.4397C495.403 25.6071 495.526 25.6348 496.326 25.8161C513.118 32.7099 514.975 33.7145 537.688 46.0267C543.846 48.7309 550.742 52.485 558.214 57.2286C549.624 51.6188 541.742 47.2428 534.748 44.1384C509.584 30.0057 486.416 21.5987 484.458 21.2286C485.447 21.6465 486.448 22.0418 487.445 22.4397Z" fill="#F4F9FD"/>
<path fill-rule="evenodd" clip-rule="evenodd" d="M567.872 63.3749C564.553 61.1542 561.34 59.1201 558.214 57.2286C559.343 57.9312 560.479 58.646 561.631 59.3904L567.872 63.3749Z" fill="#F4F9FD"/>
<path fill-rule="evenodd" clip-rule="evenodd" d="M332.491 50.0794C344.834 94.9341 388.911 159.864 446.043 222.177C385.971 270.437 318.786 330.343 256.473 392.474C242.366 406.541 229.058 420.168 215.629 432.854C213.379 432.624 208.109 432.085 207.1 438.174C206.132 444.02 211.969 449.436 217.648 446.021C220.388 444.172 221.139 441.083 219.88 436.841C232.364 423.76 245.687 410.149 259.794 396.084C323.313 332.751 391.562 271.37 451.97 222.053C394.353 159.702 349.735 94.3522 337.367 49.4116C328.28 16.3853 338.196 0.150368 361.88 0.155427L356.59 0.216137C333.131 0.537395 323.382 16.9797 332.491 50.0794Z" fill="#F4F9FD"/>
<path fill-rule="evenodd" clip-rule="evenodd" d="M293.428 57.527C305.353 100.872 344.395 161.374 396.441 221.881C341.026 262.183 283.09 311.157 230.395 363.702C216.279 377.78 203.092 391.561 189.939 404.531C183.333 403.318 181.929 408.419 181.653 410.014C180.634 415.945 186.16 421.386 191.669 417.88C194.328 415.981 195.107 412.847 193.991 408.571C206.24 395.209 219.443 381.443 233.559 367.367C287.461 313.617 346.621 263.345 402.799 222.086C349.993 161.194 310.247 100.019 298.246 56.3954C289.092 23.1357 297.538 5.42491 319.118 2.78955L313.943 3.46041C292.565 6.35905 284.264 24.2293 293.428 57.527Z" fill="#F4F9FD"/>
<path fill-rule="evenodd" clip-rule="evenodd" d="M255.976 68.1856C267.089 108.593 300.177 162.902 345.291 219.033C297.581 252.079 249.969 291.281 206.949 334.189C192.84 348.263 179.774 362.19 166.897 375.429C160.596 374.262 159.145 379.449 158.849 381.069C157.757 387.053 162.922 392.452 168.249 388.848C170.826 386.893 171.64 383.724 170.664 379.423C182.679 365.787 195.758 351.88 209.869 337.806C254.105 293.683 303.057 253.307 351.872 219.38C305.818 162.58 271.958 107.421 260.725 66.5833C251.58 33.3297 258.801 14.5424 278.529 9.81396L273.361 11.11C253.898 16.0916 246.841 34.9852 255.976 68.1856Z" fill="#F4F9FD"/>
<path fill-rule="evenodd" clip-rule="evenodd" d="M60.1296 331.18C81.78 326.834 91.5593 325.971 123.984 324.161C136.143 309.025 149.74 293.872 164.749 278.863C184.601 259.008 205.839 240.493 227.975 223.493C229.69 224.173 231.825 225.02 234.975 223.219C235.043 223.179 241.791 219.104 238.648 212.975C238.403 212.699 238.11 212.298 237.832 212.054C234.745 209.336 225.423 211.106 225.671 220.116C203.492 237.052 182.231 255.534 162.379 275.386C147.866 289.898 134.691 304.56 122.868 319.229C89.8717 320.915 79.769 322.754 61.4306 326.091C48.4782 302.998 39.0223 281.627 33.9166 263.02C28.571 243.535 28.427 228.658 32.8152 218.32L31.7162 220.937L30.7891 223.189C26.6106 233.453 26.8228 248.102 32.0674 267.209C37.2362 286.049 46.8867 307.735 60.1296 331.18Z" fill="#F4F9FD"/>
<path fill-rule="evenodd" clip-rule="evenodd" d="M119.661 303.804C130.445 290.579 142.341 277.416 155.338 264.414C163.109 256.639 171.107 249.09 179.304 241.776C181.527 242.843 183.778 242.635 185.988 241.158C190.368 238.232 191.728 232.177 188.632 229.375C184.931 226.021 176.257 230.224 177.092 238.376C168.892 245.68 160.888 253.222 153.117 260.999C140.618 273.502 129.148 286.169 118.71 298.904C91.0241 300.951 87.3883 301.567 67.2188 304.997C29.2362 234.077 37.6053 210.111 41.6271 198.594L39.3159 203.342C26.1883 234.265 52.8548 285.49 65.6696 310.107C84.8652 306.783 89.427 305.992 119.661 303.804Z" fill="#F4F9FD"/>
<path fill-rule="evenodd" clip-rule="evenodd" d="M79.7734 268.838C89.7734 267.297 103.172 265.664 113.233 264.586C121.116 255.386 129.561 246.276 138.57 237.303C146.342 229.556 154.366 222.077 162.612 214.87C164.656 215.877 166.811 215.642 169.021 214.168C173.369 211.271 175.042 205.404 172.279 202.76C168.961 199.58 160.432 203.772 160.719 211.625C152.471 218.822 144.441 226.296 136.67 234.04C128.158 242.519 120.152 251.121 112.655 259.817C103.384 260.779 91.0654 262.421 81.84 263.764C72.4734 245.504 65.4787 228.496 61.2824 213.257C54.7773 189.638 55.61 172.494 62.6905 161.716L59.8012 166.183C52.9529 176.95 52.2111 193.925 58.6254 217.219C62.9049 232.763 70.1065 250.155 79.7734 268.838Z" fill="#F4F9FD"/>
<path fill-rule="evenodd" clip-rule="evenodd" d="M88.9497 248.643C95.7784 247.56 104.941 246.512 111.8 245.653C118.135 238.486 124.817 231.397 131.856 224.401C151.744 204.63 173.347 186.709 196.134 170.758C198.115 171.796 200.315 171.688 202.681 170.44C202.75 170.405 209.578 166.607 207.468 160.95C207.278 160.697 207.06 160.333 206.835 160.111C203.75 157.058 194.671 160.576 194.433 167.64C171.613 183.53 149.993 201.42 130.102 221.192C123.567 227.69 117.338 234.273 111.41 240.925C105.358 241.585 97.3299 242.792 91.2959 243.605C83.0878 227.071 76.8918 211.615 73.0346 197.634C66.1578 172.721 67.3777 154.939 75.4365 144.155L72.2474 148.484C64.4316 159.275 63.3104 176.908 70.1011 201.508C74.0495 215.815 80.4479 231.667 88.9497 248.643Z" fill="#F4F9FD"/>
<path fill-rule="evenodd" clip-rule="evenodd" d="M152.598 105.967C151.666 106.887 149.722 108.802 149.177 110.846C148.355 113.947 151.463 114.054 154.764 112.21C157.691 110.577 160.498 107.628 161.291 105.351C161.862 103.707 161.646 101.136 156.726 103.147C152.636 79.5915 157.304 64.0468 169.238 56.3505L164.779 59.2794C153.083 67.0797 148.538 82.5914 152.598 105.967Z" fill="#F4F9FD"/>
<path fill-rule="evenodd" clip-rule="evenodd" d="M211.813 120.769C214.322 121.814 212.942 125.558 209.391 127.337C207.986 128.04 205.332 128.715 204.303 126.791C203.157 123.436 208.875 119.548 211.813 120.769ZM204.191 120.124C197.089 126.421 199.369 131.583 204.313 131.854C205.663 131.93 207.779 131.499 209.341 130.834C213.331 129.131 219.817 123.599 216.719 118.523C214.741 116.691 212.439 116.45 208.507 117.663C204.861 108.768 201.928 100.296 199.773 92.325C191.034 60.0034 196.232 40.2135 212.441 32.6432L207.709 34.9019C191.765 42.6574 186.711 62.4778 195.415 94.6649C197.58 102.674 200.525 111.189 204.191 120.124Z" fill="#F4F9FD"/>
<path fill-rule="evenodd" clip-rule="evenodd" d="M143.144 143.434C142.518 144.218 141.054 146.048 140.587 148.082C139.698 151.948 142.784 153.287 146.815 150.787V150.79C149.255 149.276 151.429 146.647 152.226 144.251C153.187 141.363 152.211 138.12 147.068 140.328C145.643 136.139 144.395 132.065 143.325 128.107C135.193 97.9338 138.621 78.1895 151.452 68.6432L147.205 71.8558C134.622 81.5162 131.313 101.217 139.393 131.187C140.465 135.156 141.716 139.24 143.144 143.434Z" fill="#F4F9FD"/>
<path fill-rule="evenodd" clip-rule="evenodd" d="M122.68 136.45C125.353 134.527 127.898 131.262 128.595 128.853C129.101 127.114 128.862 124.489 124.349 126.986C120.591 105.138 124.236 90.1197 134.116 81.8139L130.053 85.2856C120.396 93.6568 116.865 108.602 120.586 130.243C119.745 131.264 117.995 133.383 117.539 135.515C116.846 138.743 119.691 138.597 122.68 136.45Z" fill="#F4F9FD"/>
<path fill-rule="evenodd" clip-rule="evenodd" d="M565.523 338.282C566.27 343.547 571.06 344.675 574.207 340.331C575.293 338.692 577.403 334.376 573.586 329.736C570.959 328.878 570.335 328.676 567.677 330.947C566.232 329.86 564.777 328.757 563.315 327.639C548.247 316.132 533.26 303.759 518.578 290.79C473.369 354.061 414.967 423.384 352.28 485.904C348.622 489.551 344.987 493.139 341.375 496.664C342.138 525.199 343.421 553.715 344.095 582.248C342.547 582.928 340.21 583.955 339.677 586.516C338.631 591.571 346.22 595.576 351.62 592.815C354.412 591.389 358.044 585.538 349.59 582.228C347.362 523.707 347.362 523.707 346.621 498.532C349.749 495.473 352.891 492.367 356.049 489.219C417.52 427.913 474.521 359.753 518.77 296.975C532.724 309.196 546.938 320.875 561.223 331.784C562.701 332.914 564.174 334.029 565.482 336.196C565.495 336.823 565.434 337.663 565.523 338.282Z" fill="#F4F9FD"/>
<path fill-rule="evenodd" clip-rule="evenodd" d="M319.483 599.915C318.498 604.268 325.071 608.613 331.131 606.192C333.881 604.789 337.441 599.588 329.172 596.172C327.843 560.997 326.205 525.838 325.182 490.651C330.227 485.73 335.328 480.693 340.481 475.545C406.757 409.324 469.448 336.564 517.559 272.084C529.391 282.819 541.461 293.179 553.636 303.005C552.805 309.262 555.53 310.619 557.229 310.87C560.56 311.364 566.567 304.62 561.575 298.16C559.027 296.884 558.27 297.395 555.76 299.082C542.849 288.664 530.063 277.64 517.559 266.204C468.445 330.932 404.265 404.755 336.787 472.179C331.136 477.829 325.548 483.34 320.034 488.718C320.506 507.202 320.506 507.202 324.167 595.926C322.42 596.595 320.029 597.506 319.483 599.915Z" fill="#F4F9FD"/>
<path fill-rule="evenodd" clip-rule="evenodd" d="M245.844 687.567C245.625 686.955 245.625 686.955 244.896 686.445C241.16 684.422 235.712 683.635 234.215 684.507C234.116 686.288 239.577 687.532 241.252 687.869C274.47 707.822 290.843 711.543 301.679 714.005L307.092 714.887C290.998 712.275 269.685 703.304 244.583 688.124C245.397 688.004 245.397 688.004 245.844 687.567Z" fill="#F4F9FD"/>
<path fill-rule="evenodd" clip-rule="evenodd" d="M275.804 707.396L275.368 707.187C272.394 706.188 264.016 704.288 263.189 704.352C263.451 704.596 265.966 705.344 269.598 706.255C273.119 707.488 276.461 708.482 279.617 709.237L282.75 709.965L285.141 710.497C281.529 709.699 277.667 708.581 273.565 707.147C275.468 707.5 275.557 707.473 275.804 707.396Z" fill="#F4F9FD"/>
<path fill-rule="evenodd" clip-rule="evenodd" d="M227.546 687.965C227.489 687.639 227.489 687.639 226.897 687.256C223.897 685.661 218.607 684.131 216.844 684.156L216.653 684.365C217.599 685.328 221.323 686.614 222.881 687.122C235.508 694.368 246.84 699.551 256.585 702.646L262.311 704.351C251.98 701.265 239.809 695.791 226.162 687.963C226.99 688.075 226.99 688.075 227.546 687.965Z" fill="#F4F9FD"/>
<path fill-rule="evenodd" clip-rule="evenodd" d="M235.092 695.57V695.573L244.599 699.039L244.75 699.082L244.412 698.951C241.308 697.817 238.188 696.729 235.092 695.57Z" fill="#F4F9FD"/>
<path fill-rule="evenodd" clip-rule="evenodd" d="M196.458 671.555C194.984 670.598 193.443 669.892 191.142 669.112C186.768 666.016 182.285 662.717 177.707 659.22C167.033 651.071 156.419 642.287 146.035 633.076C121.904 622.752 113.907 617.823 106.019 611.277L107.123 612.405L107.362 612.648C115.47 620.198 127.632 625.997 145.259 633.984C155.156 642.733 165.263 651.081 175.423 658.841C179.895 662.256 184.274 665.478 188.547 668.501L187.9 668.514L187.852 669.069C190.068 670.891 193.59 672.049 194.273 672.261C196.216 672.87 196.3 672.842 197.336 672.496C197.116 672.178 196.764 671.792 196.458 671.555Z" fill="#F4F9FD"/>
<path fill-rule="evenodd" clip-rule="evenodd" d="M43.6528 468.155C52.2054 464.713 72.2382 456.659 155.589 463.226C158.656 468.938 163.221 467.191 164.276 466.408C164.329 466.37 169.3 462.238 164.552 455.806C160.273 451.775 156.327 453.72 154.986 457.927C84.0379 454.695 64.0558 456.67 43.3385 463.852C25.6504 436.958 12.9838 412.077 7.32602 391.608C5.43503 384.764 4.39827 378.673 4.16507 373.326L4.41095 378.688C4.70246 383.769 5.71386 389.512 7.48825 395.927C13.1359 416.363 25.8709 441.257 43.6528 468.155Z" fill="#F4F9FD"/>
<path fill-rule="evenodd" clip-rule="evenodd" d="M42.7992 432.155C61.0009 426.289 81.6351 423.002 128.195 424.743C130.921 430.443 135.03 428.758 136.255 427.717C136.303 427.675 141.004 423.227 136.677 416.771C133.154 413.182 129.211 414.31 127.703 419.343C71.0793 419.197 58.6316 422.889 42.8674 427.569C26.3605 401.337 14.5089 377.114 8.90393 356.829C6.02691 346.406 4.95087 337.568 5.52426 330.302L5.21862 334.442L5.14537 335.523C4.68565 342.588 5.76927 351.119 8.53515 361.128C14.1503 381.462 26.1206 405.802 42.7992 432.155Z" fill="#F4F9FD"/>
<path fill-rule="evenodd" clip-rule="evenodd" d="M608.074 153.132C607.943 154.046 607.565 155.489 606.984 155.097C605.998 153.998 606.82 149.258 607.608 149.276C608.104 149.289 608.343 151.269 608.074 153.132ZM607.732 146.441C605.513 147.601 604.768 157.935 606.884 158.2C607.619 158.294 608.327 156.897 608.697 154.644C608.901 153.369 609.245 149.513 608.36 146.996C609.47 135.376 609.409 124.709 608.095 115.18C609.196 124.518 609.044 135 607.732 146.441Z" fill="#F4F9FD"/>
<path fill-rule="evenodd" clip-rule="evenodd" d="M452.221 11.9121C453.924 12.1545 460.389 14.0608 460.974 14.4951L455.034 12.9423C453.273 12.4045 452.284 12.0662 452.092 11.9323L452.221 11.9121ZM446.866 68.3214C448.219 69.0032 448.135 69.796 446.662 70.2505C445.503 70.604 444.017 70.5838 443.434 70.5585C441.94 70.4954 439.22 70.0763 438.511 68.9148C437.908 67.0489 444.095 66.9277 446.866 68.3214ZM405.487 45.9935C406.705 50.4248 408.315 55.1009 410.284 59.9917C417.531 62.1682 427.196 65.0592 434.438 67.261C431.851 69.7379 437.57 71.7553 442.808 72.1088C445.99 72.326 454.406 71.8841 451.91 68.6219C448.017 65.7485 441.216 65.8041 440.454 65.8218C436.593 65.9 436.593 65.9 414.775 59.2469C412.966 54.6995 411.482 50.3415 410.344 46.2031C403.289 20.5751 410.708 7.73086 428.685 7.2587L450.315 11.7278C450.427 11.7632 461.918 15.3587 465.141 15.9217C463.768 14.23 449.102 10.2836 424.632 6.30176C405.984 6.5795 398.242 19.6662 405.487 45.9935Z" fill="#F4F9FD"/>
<path fill-rule="evenodd" clip-rule="evenodd" d="M585.433 93.2286C586 93.8086 586.372 94.172 589.825 97.3186C592.038 99.335 594.232 101.369 596.453 103.373C600.457 107.201 604.394 111.137 608.263 115.18C604.418 111.13 600.503 107.186 596.522 103.353C593.716 100.493 586.949 94.1073 585.433 93.2286Z" fill="#F4F9FD"/>
<path fill-rule="evenodd" clip-rule="evenodd" d="M603.389 110.336C604.001 110.936 604.625 111.516 605.233 112.122L604.683 111.571C604.256 111.152 603.816 110.754 603.389 110.336Z" fill="#F4F9FD"/>
<path fill-rule="evenodd" clip-rule="evenodd" d="M604.75 112.546L608.263 116.058L605.834 113.597C605.477 113.237 605.11 112.903 604.75 112.546Z" fill="#F4F9FD"/>
<path fill-rule="evenodd" clip-rule="evenodd" d="M585.433 94.1066C586.855 95.5032 596.752 104.085 596.849 104.168C599.212 106.332 601.547 108.552 603.872 110.79C601.558 108.547 599.253 106.297 596.897 104.125C594.245 101.539 586.917 94.887 585.433 94.1066Z" fill="#F4F9FD"/>
<path fill-rule="evenodd" clip-rule="evenodd" d="M574.893 90.4378C573.009 88.9249 563.881 82.5674 562.604 82.6939C563.069 83.0885 563.776 83.6881 567.624 86.1775C567.837 86.3141 572.852 89.5524 574.888 90.668C585.393 97.7314 595.579 105.387 605.405 113.634L608.263 116.058L603.764 112.235C594.45 104.441 584.81 97.1774 574.893 90.4378Z" fill="#F4F9FD"/>
<path fill-rule="evenodd" clip-rule="evenodd" d="M596.51 103.343C593.975 100.762 586.928 94.0757 585.433 93.2286C586.011 93.8218 586.391 94.1888 589.842 97.3358C592.048 99.3467 594.236 101.373 596.452 103.373C600.452 107.199 604.391 111.135 608.263 115.18C604.411 111.125 600.492 107.179 596.51 103.343Z" fill="#F4F9FD"/>
<path fill-rule="evenodd" clip-rule="evenodd" d="M562.604 83.5777C563.085 83.9801 563.811 84.585 567.663 87.0018C568.195 87.3376 572.932 90.3003 574.895 91.3204C579.752 94.624 585.254 98.6247 590.743 102.723C585.58 99.0425 580.335 95.5005 575 92.1251C573.055 90.6412 563.849 84.6413 562.803 85.0283C563.299 85.4307 564.048 86.0407 567.879 88.3397C568.088 88.4652 573.027 91.4254 575.05 92.407C582.028 96.7717 588.851 101.434 595.536 106.324C600.035 109.727 604.403 113.085 608.263 116.058C597.558 107.011 586.405 98.6786 574.875 91.0641C572.958 89.5519 563.775 83.3214 562.604 83.5777Z" fill="#F4F9FD"/>
<path fill-rule="evenodd" clip-rule="evenodd" d="M718.476 345.732C718.71 345.965 719.036 347.611 719.177 350.203C719.255 351.635 719.308 354.554 718.942 355.357C718.536 355.815 718.239 352.95 718.138 351.371C717.951 348.422 718.057 345.319 718.476 345.732ZM676.411 307.93C674.464 307.025 674.348 298.784 675.478 298.246C676.302 297.854 677.329 300.78 677.478 303.942C677.546 305.475 677.405 308.039 676.411 307.93ZM687.246 336.443C684.729 328.085 681.39 316.937 678.759 308.617C679.342 302.293 677.357 293.21 674.804 293.428C671.505 296.531 674.048 312.159 676.661 312.792C677.22 312.929 677.503 312.554 677.856 312.083C680.598 320.818 684.257 332.476 686.78 341.28C699.464 343.439 708.96 341.622 714.586 335.762L717.404 347.077C717.426 348.696 717.583 356.928 718.715 360.049L719.157 360.155C719.951 357.989 719.78 352.433 719.709 350.781C719.618 348.671 719.303 343.492 718.334 341.042L717.893 340.923C717.686 341.531 717.618 341.733 717.507 343.107C716.539 339.372 715.247 334.394 714.279 330.662C708.859 336.545 699.625 338.447 687.246 336.443Z" fill="#F4F9FD"/>
<path fill-rule="evenodd" clip-rule="evenodd" d="M687.022 371.018C688.068 370.505 688.809 373.314 688.491 376.575C688.341 378.116 687.785 380.727 686.658 380.744C684.499 380.074 685.611 371.706 687.022 371.018ZM712.659 367.837C712.815 367.556 713.052 367.386 713.304 368.162C713.571 368.992 713.731 370.673 713.708 372.441C713.688 373.879 713.487 376.748 712.858 377.323C711.633 377.74 711.906 369.19 712.659 367.837ZM686.23 385.606C686.902 385.716 688.59 385.258 689.764 378.651C698.506 379.569 705.712 378.646 711.165 375.86C711.43 380.414 711.865 381.654 712.481 382.182C714.205 381.927 714.475 373.666 714.487 373.314C714.513 372.433 714.701 364.65 713.049 362.79L712.713 362.805L712.435 363.12C711.855 364.388 711.445 366.151 711.173 371.023C705.796 373.771 698.687 374.682 690.059 373.779C689.616 365.145 687.253 365.728 686.383 366.681C683.409 369.925 682.495 384.991 686.23 385.606Z" fill="#F4F9FD"/>
<path fill-rule="evenodd" clip-rule="evenodd" d="M529.812 404.585C530.592 405.902 531.475 407.394 533.806 407.763C538.165 408.45 545.242 401.419 539.182 394.256C532.3 391.354 529.881 397.845 529.303 399.902C516.401 403.182 499.059 407.014 486.021 409.704C464.007 439.38 439.758 468.618 413.864 496.321C414.956 521.456 414.956 521.456 415.88 552.014C422.018 556.565 428.057 560.924 433.993 565.093C419.376 579.167 404.671 591.907 390.013 603.287C382.796 601.998 380.278 605.483 379.68 606.582C376.897 611.678 384.559 616.001 390.758 612.83C395.435 610.439 394.02 606.916 393.555 605.754C409.464 593.47 425.416 579.578 441.226 564.103C434.627 559.526 427.896 554.704 421.044 549.643C420.567 534.092 419.785 513.359 419.099 497.815C443.931 471.059 467.168 442.852 488.294 414.179C500.82 411.623 517.41 407.69 529.812 404.585Z" fill="#F4F9FD"/>
<path fill-rule="evenodd" clip-rule="evenodd" d="M482.774 506.98C481.907 513.26 489.061 516.145 494.2 511.586C496.994 509.106 497.666 506.008 496.195 502.373C544.67 440.819 581.297 371.788 602.116 306.05C602.066 305.734 596.754 274.281 597.933 271.433C598.367 270.391 599.546 266.7 596.592 262.969C595.768 262.691 594.437 262.519 593.694 262.969C591.068 264.566 588.256 273.985 594.181 275.468C595.631 284.682 597.652 296.956 599.163 306.164C577.676 370.97 540.857 439.027 492.646 499.912C483.93 499.351 482.819 506.668 482.774 506.98Z" fill="#F4F9FD"/>
<path fill-rule="evenodd" clip-rule="evenodd" d="M85.7834 140.678C88.7225 137.564 92.7442 131.996 92.0673 130.981C91.5247 130.935 90.9026 131.371 89.2974 132.915C90.6661 127.177 93.0428 122.438 96.3602 118.692L92.789 122.78C89.6184 126.473 87.3363 131.102 86.0074 136.676C82.7074 141.009 82.2993 142.407 82.3117 143.138L82.5108 143.277C82.8368 143.191 83.5983 142.994 85.7834 140.678Z" fill="#F4F9FD"/>
<path fill-rule="evenodd" clip-rule="evenodd" d="M275.988 619.62C277.035 619.259 278.115 618.452 278.554 617.7C280.49 614.415 275.822 609.138 268.791 610.266C260.905 603.892 253.063 597.349 245.284 590.658C241.285 535.59 241.285 535.59 239.829 512.898C247.46 505.682 255.361 498.147 263.518 490.303C264.32 490.619 265.418 491.054 266.761 491.087C271.662 491.206 277.053 485.624 271.496 479.125C270.799 478.572 269.831 477.838 269.006 477.497C263.745 475.321 256.87 479.692 259.966 486.876C251.377 495.182 243.078 503.155 235.092 510.776C236.611 534.781 236.611 534.781 240.93 591.571C249.102 598.623 257.345 605.519 265.637 612.222L265.29 612.882C263.635 617.071 270.635 621.479 275.988 619.62Z" fill="#F4F9FD"/>
<path fill-rule="evenodd" clip-rule="evenodd" d="M364.062 678.125C367.606 677.384 371.179 678.656 370.233 680.319C369.782 681.114 368.501 681.574 367.971 681.737C366.749 682.11 363.867 682.536 361.724 681.48C359.592 680.152 361.648 678.631 364.062 678.125ZM386.005 630.43C389.938 629.8 392.907 632.2 391.216 634.638C390.871 635.133 390.295 635.621 389.629 635.979C388.335 636.675 385.481 637.462 382.966 636.004C380.199 633.99 382.385 631.009 386.005 630.43ZM396.147 630.74C395.366 629.297 393.781 628.477 392.625 627.878C382.793 624.79 374.761 631.362 377.231 636.144C377.383 636.444 377.667 636.794 377.857 637.073C362.34 646.724 346.892 654.835 331.677 661.379C340.863 667.388 349.722 672.83 358.223 677.701C353.251 681.203 358.256 683.291 360.601 683.799C363.121 684.342 366.764 684.258 369.46 683.59C374.954 682.234 376.843 679.055 373.346 677.051C372.175 676.378 368.732 674.956 362.056 676.233C354.445 671.87 346.547 667.055 338.391 661.788C352.516 655.594 366.815 648.065 381.155 639.217C391.117 642.076 398.723 635.491 396.147 630.74Z" fill="#F4F9FD"/>
<path fill-rule="evenodd" clip-rule="evenodd" d="M553.842 649.912C563.83 641.957 573.52 633.317 582.862 623.987C584.875 621.977 586.859 619.95 588.816 617.897C590.841 617.067 592.873 615.649 594.86 613.685C594.916 613.627 600.654 607.849 597.817 606.887C593.764 607.189 586.034 614.771 586.783 617.702C584.827 619.752 582.842 621.779 580.83 623.791C572.695 631.914 564.299 639.518 555.675 646.6C550.334 646.019 544.578 644.936 538.43 643.347C541.08 635.928 543.429 625.649 546.069 618.227C546.365 617.4 547.269 617.415 547.826 616.945C550.165 614.984 551.658 612.561 551.539 610.914C551.268 607.088 543.956 609.184 539.86 614.263C537.276 617.468 537.375 620.582 541.642 620.105C539.584 628.034 536.258 638.455 533.628 646.215C540.921 648.148 547.671 649.381 553.842 649.912Z" fill="#F4F9FD"/>
<path fill-rule="evenodd" clip-rule="evenodd" d="M648.091 566.497C644.802 567.894 638.065 577.211 639.193 578.809C639.697 578.835 639.851 578.84 640.996 577.969C632.748 596.903 627.101 605.196 613.531 618.302L617.69 614.29L623.275 608.665C628.099 602.974 634.723 595.305 637.812 588.557C639.705 584.425 641.702 578.643 644.119 574.787C644.976 573.421 646.135 572.268 646.963 570.884C648.909 567.624 648.787 566.96 648.47 566.515L648.091 566.497Z" fill="#F4F9FD"/>
<path fill-rule="evenodd" clip-rule="evenodd" d="M624.276 607.538L622.999 608.847L622.98 608.871C623.415 608.428 623.847 607.983 624.276 607.538Z" fill="#F4F9FD"/>
<path fill-rule="evenodd" clip-rule="evenodd" d="M148.048 615.177C150.441 615.119 153.265 618.027 152.024 619.264L151.528 619.555C150.958 619.74 149.444 619.713 147.788 618.29C146.053 616.607 146.511 615.212 148.048 615.177ZM153.176 621.756C155.348 621.365 156.788 618.691 151.927 614.759C147.442 611.906 144.537 612.63 143.985 614.816C104.366 602.549 94.939 597.981 92.848 596.351L94.1123 597.771C103.094 603.741 134.894 613.892 144.425 616.862C146.27 620.419 150.915 622.162 153.176 621.756Z" fill="#F4F9FD"/>
<path fill-rule="evenodd" clip-rule="evenodd" d="M187.358 500.939C190.61 506.402 195.255 505.121 196.626 504.242C196.68 504.207 201.954 500.395 196.91 494.161C192.281 490.137 188.021 491.93 186.727 495.901C96.9693 489.321 69.8789 487.337 47.1547 496.888C29.0218 470.44 16.0398 445.881 10.5448 426.033C9.68167 422.921 9.02105 419.986 8.55533 417.229L9.48424 422.715C9.92719 425.094 10.5093 427.597 11.2358 430.228C16.6979 449.958 29.6875 474.418 47.8254 500.747C55.9654 496.517 71.1141 488.639 187.358 500.939Z" fill="#F4F9FD"/>
<path fill-rule="evenodd" clip-rule="evenodd" d="M318.933 217.897C275.803 247.508 233.469 282.16 195.176 320.248C193.131 322.286 191.105 324.321 189.103 326.353C181.377 323.652 179.273 331.457 179.187 331.789C177.607 337.916 182.725 343.357 188.644 339.604C191.546 337.557 192.646 334.31 191.911 329.947C193.911 327.914 195.937 325.88 197.985 323.842C237.485 284.551 281.179 248.781 325.531 218.322C283.25 164.431 252.455 112.815 241.71 73.8528C232.603 40.8332 239.203 21.6597 257.943 15.9603L252.947 17.5218C234.435 23.4363 227.971 42.6959 237.066 75.67C247.672 114.121 277.666 164.808 318.933 217.897Z" fill="#F4F9FD"/>
<path fill-rule="evenodd" clip-rule="evenodd" d="M274.329 62.0816C285.902 104.086 322.071 161.632 370.868 220.197C318.946 256.768 266.029 300.7 218.136 348.396C216.091 350.432 214.069 352.461 211.098 354.06C204.162 352.914 202.345 358.2 201.953 359.847C200.52 365.857 206.115 371.43 212.037 367.764C214.977 365.738 216.01 362.488 215.099 358.114C217.101 356.088 219.125 354.057 221.17 352.021C270.27 303.123 324.47 257.97 377.336 220.488C327.684 161.392 290.773 103.082 279.102 60.7207C269.921 27.3973 277.781 9.11169 298.511 5.42371L293.352 6.39756C272.856 10.3461 265.151 28.7632 274.329 62.0816Z" fill="#F4F9FD"/>
</g>
<defs>
<filter id="filter0_dd" x="0.16507" y="0.155426" width="727.122" height="727.122" filterUnits="userSpaceOnUse" color-interpolation-filters="sRGB">
<feFlood flood-opacity="0" result="BackgroundImageFix"/>
<feColorMatrix in="SourceAlpha" type="matrix" values="0 0 0 0 0 0 0 0 0 0 0 0 0 0 0 0 0 0 127 0"/>
<feOffset dy="4"/>
<feGaussianBlur stdDeviation="2"/>
<feColorMatrix type="matrix" values="0 0 0 0 0 0 0 0 0 0 0 0 0 0 0 0 0 0 0.25 0"/>
<feBlend mode="normal" in2="BackgroundImageFix" result="effect1_dropShadow"/>
<feColorMatrix in="SourceAlpha" type="matrix" values="0 0 0 0 0 0 0 0 0 0 0 0 0 0 0 0 0 0 127 0"/>
<feOffset dy="4"/>
<feGaussianBlur stdDeviation="2"/>
<feColorMatrix type="matrix" values="0 0 0 0 0 0 0 0 0 0 0 0 0 0 0 0 0 0 0.25 0"/>
<feBlend mode="normal" in2="effect1_dropShadow" result="effect2_dropShadow"/>
<feBlend mode="normal" in="SourceGraphic" in2="effect2_dropShadow" result="shape"/>
</filter>
</defs>
</svg>
